<svg width="500" height="500" viewBox="0 0 500 500" fill="none" xmlns="http://www.w3.org/2000/svg">
<path d="M290 190C278.954 190 270 198.954 270 210C270 221.046 278.954 230 290 230C301.046 230 310 221.046 310 210C310 198.954 301.046 190 290 190Z" fill="white"/>
<path fill-rule="evenodd" clip-rule="evenodd" d="M150 170C150 158.954 158.954 150 170 150H330C341.046 150 350 158.954 350 170V330C350 331.38 349.86 332.729 349.594 334.031C349.199 335.958 348.528 337.784 347.623 339.465C344.247 345.737 337.621 350 330 350H170C158.954 350 150 341.046 150 330V170ZM214.656 191.895L210 187.239L163.333 233.905V170C163.333 166.318 166.318 163.333 170 163.333H330C333.682 163.333 336.667 166.318 336.667 170V283.333H306.095L214.715 191.953C214.695 191.933 214.676 191.914 214.656 191.895Z" fill="white"/>
</svg>
