<svg width="104" height="24" viewBox="0 0 104 24" fill="none" xmlns="http://www.w3.org/2000/svg">
    <path
        d="M7.84082 12.4575C7.84082 9.90766 9.9079 7.84058 12.4578 7.84058L19.3832 7.84058C21.9331 7.84058 24.0002 9.90766 24.0002 12.4575C24.0002 15.0074 21.9331 17.0745 19.3832 17.0745H12.4578C9.9079 17.0745 7.84082 15.0074 7.84082 12.4575Z"
        fill="#FF868E" />
    <path
        d="M12.4578 24C9.9079 24 7.84082 21.9329 7.84082 19.383L7.84082 12.4576C7.84082 9.90772 9.9079 7.84063 12.4578 7.84063C15.0077 7.84063 17.0747 9.90772 17.0747 12.4576V19.383C17.0747 21.9329 15.0077 24 12.4578 24Z"
        fill="#FF868E" />
    <path
        d="M11.5427 2.8856C11.5427 4.47927 10.2508 5.7712 8.65709 5.7712C7.06341 5.7712 5.77148 4.47927 5.77148 2.8856C5.77148 1.29193 7.06341 0 8.65709 0C10.2508 0 11.5427 1.29193 11.5427 2.8856Z"
        fill="#FF868E" />
    <path
        d="M5.7712 16.7364C5.7712 18.3301 4.47927 19.622 2.8856 19.622C1.29193 19.622 0 18.3301 0 16.7364C0 15.1428 1.29193 13.8508 2.8856 13.8508C4.47927 13.8508 5.7712 15.1428 5.7712 16.7364Z"
        fill="#FF868E" />
    <path
        d="M19.6218 2.8856C19.6218 4.47927 18.3299 5.7712 16.7362 5.7712C15.1425 5.7712 13.8506 4.47927 13.8506 2.8856C13.8506 1.29193 15.1425 0 16.7362 0C18.3299 0 19.6218 1.29193 19.6218 2.8856Z"
        fill="#FF868E" />
    <path
        d="M5.7712 8.65684C5.7712 10.2505 4.47927 11.5424 2.8856 11.5424C1.29193 11.5424 0 10.2505 0 8.65684C0 7.06317 1.29193 5.77124 2.8856 5.77124C4.47927 5.77124 5.7712 7.06317 5.7712 8.65684Z"
        fill="#FF868E" />
    <path
        d="M32 18.0865V5.72168H37.7984C38.7712 5.72168 39.5648 5.90728 40.1792 6.27848C40.8064 6.64968 41.2736 7.15528 41.5808 7.79528C41.888 8.43528 42.0416 9.16488 42.0416 9.98408C42.0416 10.8161 41.8624 11.5521 41.504 12.1921C41.1584 12.8321 40.6592 13.3313 40.0064 13.6897C39.3664 14.0353 38.6048 14.2081 37.7216 14.2081H34.592V18.0865H32ZM34.592 12.1537H37.184C37.9264 12.1537 38.4832 11.9617 38.8544 11.5777C39.2384 11.1809 39.4304 10.6497 39.4304 9.98408C39.4304 9.26728 39.2512 8.72328 38.8928 8.35208C38.5344 7.96808 37.9968 7.77608 37.28 7.77608H34.592V12.1537Z"
        fill="#1D1D1D" class="logo-name" />
    <path
        d="M48.2174 18.2785C46.643 18.2785 45.395 17.8881 44.4734 17.1073C43.5518 16.3137 43.091 15.1169 43.091 13.5169C43.091 12.0705 43.475 10.9249 44.243 10.0801C45.0238 9.22248 46.1822 8.79368 47.7182 8.79368C49.1262 8.79368 50.2014 9.16488 50.9438 9.90728C51.699 10.6369 52.0766 11.5969 52.0766 12.7873V14.4385L45.491 14.4385C45.6318 15.1681 45.9646 15.6673 46.4894 15.9361C47.027 16.2049 47.7822 16.3393 48.755 16.3393C49.2414 16.3393 49.7342 16.2945 50.2334 16.2049C50.7454 16.1153 51.1806 16.0001 51.539 15.8593V17.7025C51.1166 17.8945 50.6238 18.0353 50.0606 18.1249C49.4974 18.2273 48.883 18.2785 48.2174 18.2785ZM45.491 12.8449H49.811V12.3457C49.811 11.8209 49.6574 11.4113 49.3502 11.1169C49.043 10.8097 48.5246 10.6561 47.795 10.6561C46.9374 10.6561 46.3358 10.8289 45.9902 11.1745C45.6574 11.5201 45.491 12.0769 45.491 12.8449Z"
        fill="#1D1D1D" class="logo-name" />
    <path
        d="M57.4909 18.2785C56.4413 18.2785 55.6604 18.0033 55.1485 17.4529C54.6493 16.9025 54.3997 16.1537 54.3997 15.2065V10.9825H53.1133V8.98568H54.3997V7.02728L56.9917 6.25928V8.98568H59.2957L59.142 10.9825H56.9917V15.0337C56.9917 15.5329 57.1068 15.8785 57.3372 16.0705C57.5676 16.2497 57.9261 16.3393 58.4125 16.3393C58.7709 16.3393 59.142 16.2753 59.5261 16.1473V17.9329C59.2444 18.0481 58.9373 18.1313 58.6045 18.1825C58.2717 18.2465 57.9005 18.2785 57.4909 18.2785Z"
        fill="#1D1D1D" class="logo-name" />
    <path
        d="M64.0626 18.2785C63.3843 18.2785 62.7379 18.2273 62.1234 18.1249C61.5091 18.0353 61.0163 17.9201 60.6451 17.7793V15.6289C61.0931 15.8081 61.5986 15.9489 62.1618 16.0513C62.725 16.1409 63.2435 16.1857 63.7171 16.1857C64.3571 16.1857 64.805 16.1473 65.0611 16.0705C65.3298 15.9937 65.4643 15.8209 65.4643 15.5521C65.4643 15.2449 65.2595 15.0209 64.8498 14.8801C64.4531 14.7393 63.8578 14.5409 63.0642 14.2849C62.2322 14.0033 61.5923 13.6641 61.1443 13.2673C60.6963 12.8705 60.4722 12.2817 60.4722 11.5009C60.4722 10.6305 60.7859 9.96488 61.413 9.50408C62.053 9.03048 63.077 8.79368 64.4851 8.79368C65.0482 8.79368 65.5794 8.83848 66.0787 8.92808C66.5779 9.00488 67.0003 9.10088 67.3459 9.21608V11.3473C67.0003 11.1809 66.6035 11.0593 66.1555 10.9825C65.7075 10.8929 65.2915 10.8481 64.9075 10.8481C64.357 10.8481 63.9155 10.8865 63.5827 10.9633C63.2627 11.0401 63.1026 11.2065 63.1026 11.4625C63.1026 11.7441 63.2755 11.9425 63.6211 12.0577C63.9795 12.1729 64.5299 12.3457 65.2723 12.5761C66.0019 12.7937 66.5715 13.0305 66.9811 13.2865C67.3907 13.5425 67.6786 13.8497 67.8451 14.2081C68.0115 14.5537 68.0947 14.9889 68.0947 15.5137C68.0947 17.3569 66.7506 18.2785 64.0626 18.2785Z"
        fill="#1D1D1D" class="logo-name" />
    <path
        d="M69.8937 18.0865V5.72168L75.6922 5.72168C76.665 5.72168 77.4585 5.90728 78.0729 6.27848C78.7001 6.64968 79.1674 7.15528 79.4746 7.79528C79.7818 8.43528 79.9354 9.16488 79.9354 9.98408C79.9354 10.8161 79.7562 11.5521 79.3978 12.1921C79.0522 12.8321 78.553 13.3313 77.9002 13.6897C77.2602 14.0353 76.4986 14.2081 75.6154 14.2081H72.4858V18.0865H69.8937ZM72.4858 12.1537H75.0778C75.8201 12.1537 76.3769 11.9617 76.7481 11.5777C77.1322 11.1809 77.3242 10.6497 77.3242 9.98408C77.3242 9.26728 77.145 8.72328 76.7866 8.35208C76.4282 7.96808 75.8906 7.77608 75.1738 7.77608H72.4858V12.1537Z"
        fill="#1D1D1D" class="logo-name" />
    <path
        d="M83.8546 18.2785C83.2786 18.2785 82.741 18.1761 82.2418 17.9713C81.7554 17.7537 81.3586 17.4401 81.0513 17.0305C80.757 16.6081 80.6098 16.0833 80.6098 15.4561C80.6098 14.5601 80.9234 13.8433 81.5505 13.3057C82.1906 12.7681 83.1314 12.4993 84.373 12.4993H87.061V12.2497C87.061 11.6865 86.9009 11.2897 86.5809 11.0593C86.2737 10.8289 85.6466 10.7137 84.6994 10.7137C83.6626 10.7137 82.6642 10.8737 81.7042 11.1937V9.36968C82.1266 9.20328 82.6385 9.06888 83.2402 8.96648C83.8545 8.85128 84.5202 8.79368 85.2369 8.79368C86.6066 8.79368 87.6626 9.07528 88.405 9.63848C89.1602 10.1889 89.5378 11.0785 89.5378 12.3073V18.0865H87.2913L87.1569 17.2609C86.7985 17.5809 86.357 17.8305 85.8322 18.0097C85.3074 18.1889 84.6482 18.2785 83.8546 18.2785ZM84.565 16.5697C85.141 16.5697 85.6401 16.4737 86.0625 16.2817C86.485 16.0897 86.8177 15.8465 87.061 15.5521V14.1121H84.4306C83.4194 14.1121 82.9137 14.5281 82.9137 15.3601C82.9137 16.1665 83.4642 16.5697 84.565 16.5697Z"
        fill="#1D1D1D" class="logo-name" />
    <path
        d="M93.1535 18.0865L90.7535 8.98568H93.3455L94.7279 14.8993L96.2447 10.1569V8.98568H98.2223L99.9503 14.8993L101.294 8.98568H103.867L101.486 18.0865H99.1055L97.3583 12.7681L95.5727 18.0865H93.1535Z"
        fill="#1D1D1D" class="logo-name" />
</svg>