<svg width="20" height="20" viewBox="0 0 20 20" fill="none" xmlns="http://www.w3.org/2000/svg">
    <path fill-rule="evenodd" clip-rule="evenodd"
        d="M4.63636 0.193487C4.87305 -0.0644957 5.25678 -0.0644957 5.49346 0.193487L9.12983 4.15713L8.27273 5.09136L5.67097 2.25545V19.8182H4.45885V2.25545L1.8571 5.09136L1 4.15713L4.63636 0.193487ZM14.7619 1.32121C13.7577 1.32121 12.9437 2.2085 12.9437 3.30303V5.28485H16.5801V3.30303C16.5801 2.2085 15.766 1.32121 14.7619 1.32121ZM16.5801 6.60606V9.24845H17.7922V3.30303C17.7922 1.47882 16.4355 0 14.7619 0C13.0883 0 11.7315 1.47882 11.7315 3.30303V9.24845H12.9437V6.60606H16.5801ZM11.7315 10.5697H15.3679C16.7068 10.5697 17.7922 11.7527 17.7922 13.2121C17.7922 14.0014 17.4747 14.7097 16.9715 15.1939C17.4747 15.6781 17.7922 16.3865 17.7922 17.1757C17.7922 18.6351 16.7068 19.8182 15.3679 19.8182H11.7315V10.5697ZM15.3679 14.5334C16.0374 14.5334 16.5801 13.9418 16.5801 13.2121C16.5801 12.4825 16.0374 11.8909 15.3679 11.8909H12.9437V14.5334H15.3679ZM12.9437 15.8545H15.3679C16.0374 15.8545 16.5801 16.4461 16.5801 17.1757C16.5801 17.9055 16.0374 18.497 15.3679 18.497H12.9437V15.8545Z"
        fill="#8C8C8C" />
</svg>